<?xml version="1.0" encoding="utf-8"?>
<!-- Generator: Adobe Illustrator 26.2.1, SVG Export Plug-In . SVG Version: 6.00 Build 0)  -->
<svg version="1.1" id="Layer_1" xmlns="http://www.w3.org/2000/svg" xmlns:xlink="http://www.w3.org/1999/xlink" x="0px" y="0px"
	 viewBox="0 0 452.8 150.2" style="enable-background:new 0 0 452.8 150.2;" xml:space="preserve">
<style type="text/css">
	.st0{fill:#95C11F;}
	.st1{fill:#34BBDA;}
	.st2{fill:#E94E1B;}
	.st3{fill:#004650;}
	.st4{fill:#CA9E67;}
	.st5{fill:#A3195B;}
	.st6{fill:#FFFFFF;}
</style>
<g id="Layer_1_00000092444431953749141060000012269420061721321604_">
	<g id="Layer_2_00000157986523579936396390000013993086247165421452_">
		<g id="Layer_1-2">
			<g>
				<rect x="282.2" y="57.8" class="st0" width="124.5" height="46.4"/>
			</g>
			<g>
				<polygon class="st0" points="297.3,49.4 294.5,49.4 294.5,9.8 356.4,9.8 356.4,12.6 297.3,12.6 				"/>
			</g>
			<g>
				<polygon class="st0" points="300.7,43.8 295.9,48.6 291.2,43.8 291.2,47.9 295.9,52.6 300.7,47.9 				"/>
			</g>
			<g>
				<polygon class="st1" points="198.1,139.3 102.7,139.3 102.7,136.5 194.9,136.5 194.9,113.8 198.1,113.8 				"/>
			</g>
			<g>
				<polygon class="st1" points="191.7,118.4 196.5,113.6 201.2,118.4 201.2,114.3 196.5,109.6 191.7,114.3 				"/>
			</g>
			<g>
				<polygon class="st2" points="81.8,69.4 78.2,69.4 78.2,34.4 163.7,34.4 163.7,48.9 160.1,48.9 160.1,37.2 81.8,37.2 				"/>
			</g>
			<g>
				<polygon class="st2" points="166.8,44.1 162,48.8 157.3,44.1 157.3,48.1 162,52.8 166.8,48.1 				"/>
			</g>
			<g>
				<path class="st3" d="M10.5,93.9H10c-1.3,0.1-2.6-0.6-3.2-1.8C6,92.9,5,93.3,3.9,93.3S1.7,92.8,1,92c-0.7-0.9-1-2.1-1-3.2
					c-0.1-1.4,0.5-2.7,1.5-3.7C2.4,84.3,3.6,84,4.8,84h1.5v-1h1.6v6.6c-0.1,0.8,0.2,1.6,0.7,2.2c0.4,0.4,1,0.7,1.6,0.7h0.4v1.4
					C10.6,93.9,10.5,93.9,10.5,93.9z M3.5,80.7c0,0.3-0.1,0.5-0.3,0.7s-0.4,0.3-0.7,0.3S2,81.6,1.8,81.4S1.5,81,1.5,80.7
					s0.1-0.5,0.3-0.7s0.5-0.3,0.7-0.3c0.3,0,0.5,0.1,0.7,0.3C3.4,80.1,3.5,80.4,3.5,80.7L3.5,80.7z M6.2,85.5H4.8
					c-1-0.1-1.9,0.3-2.6,1c-0.5,0.6-0.8,1.4-0.7,2.3c-0.1,0.8,0.2,1.7,0.7,2.4c0.4,0.5,1,0.7,1.6,0.7c0.9,0,1.8-0.4,2.5-1.1
					c-0.1-0.3-0.1-0.7-0.1-1C6.2,89.8,6.2,85.5,6.2,85.5z M6,80.7c0,0.5-0.5,1-1,1c-0.3,0-0.5-0.1-0.7-0.3C4.1,81.2,4,80.9,4,80.7
					c0-0.3,0.1-0.5,0.3-0.7c0.2-0.2,0.5-0.3,0.7-0.3c0.3,0,0.5,0.1,0.7,0.3C5.9,80.1,6,80.4,6,80.7z"/>
			</g>
			<g>
				<path class="st3" d="M15,93.9h-5v-1.5h4c-0.5-0.5-1-1.1-1.3-1.8c-0.3-0.7-0.5-1.4-0.5-2.1c-0.1-1.2,0.4-2.3,1.2-3.2
					c0.8-0.8,1.8-1.2,2.9-1.1c1.2-0.1,2.4,0.5,3.2,1.4c0.6,0.8,1,1.8,0.9,2.9c0,0.7-0.2,1.5-0.5,2.1c-0.3,0.7-0.7,1.3-1.3,1.8h4v1.5
					h-5c-0.5,0-0.9,0-1.4-0.2C15.9,93.8,15.5,93.9,15,93.9z M16.4,92.3c0.8-0.4,1.5-1,2-1.8c0.4-0.6,0.6-1.3,0.6-2.1
					c0-0.8-0.2-1.5-0.7-2.1c-0.5-0.5-1.1-0.8-1.8-0.7c-0.8,0-1.5,0.3-2,0.9c-0.4,0.6-0.6,1.2-0.5,1.9c0,0.8,0.3,1.6,0.7,2.3
					C15,91.5,15.6,92,16.4,92.3z M16.2,81.6c0,0.6-0.4,1-1,1.1c-0.3,0-0.5-0.1-0.7-0.3c-0.2-0.2-0.3-0.5-0.3-0.7
					c0-0.3,0.1-0.5,0.3-0.7s0.5-0.3,0.7-0.3c0.3,0,0.5,0.1,0.7,0.3C16.1,81.1,16.2,81.4,16.2,81.6z M18.7,81.6
					c0,0.3-0.1,0.5-0.3,0.7c-0.2,0.2-0.5,0.3-0.7,0.3c-0.6,0-1-0.5-1-1.1c0-0.3,0.1-0.5,0.3-0.7c0.2-0.2,0.4-0.3,0.7-0.3
					c0.3,0,0.5,0.1,0.7,0.3C18.6,81.1,18.7,81.4,18.7,81.6z"/>
			</g>
			<g>
				<path class="st3" d="M35,93.9H22.2v-1.5H26V79h1.6v10.3c1-1.6,2.3-3,3.9-4c1-0.6,2.2-1,3.5-1c1.4-0.1,2.7,0.4,3.7,1.4
					c0.8,1,1.3,2.2,1.2,3.5c0,2.1,0.8,3.1,2.3,3.1h0.4v1.5H42c-1.2,0.1-2.3-0.5-3-1.4C38.3,93.4,37,93.9,35,93.9z M27.6,92.4h7.2
					c1,0.1,2-0.2,2.8-0.8c0.5-0.7,0.7-1.5,0.6-2.3c0-2.3-1.1-3.4-3.2-3.4c-1.7,0.1-3.2,0.8-4.3,2C29.4,89.1,28.3,90.6,27.6,92.4z"/>
			</g>
			<g>
				<path class="st3" d="M42.7,93.9h-0.6v-1.5h0.4c0.7,0,1.4-0.3,1.8-0.8c0.4-0.6,0.6-1.3,0.6-2v-5h1.6v5c-0.1,0.8,0.2,1.6,0.7,2.2
					c0.4,0.4,1,0.7,1.6,0.7h0.4V94h-0.5c-1.2,0.1-2.3-0.5-3-1.4C44.9,93.4,43.8,93.9,42.7,93.9z M46.7,81.7c0,0.3-0.1,0.5-0.3,0.7
					s-0.5,0.3-0.7,0.3c-0.3,0-0.5-0.1-0.7-0.3c-0.2-0.2-0.3-0.5-0.3-0.7c0-0.3,0.1-0.5,0.3-0.7s0.4-0.3,0.7-0.3s0.5,0.1,0.7,0.3
					C46.6,81.2,46.7,81.5,46.7,81.7L46.7,81.7z"/>
			</g>
			<g>
				<path class="st3" d="M59.3,92.5c-1.3,1.8-3.8,2.3-5.7,1c-0.4-0.3-0.7-0.6-1-1c-0.7,0.9-1.8,1.4-2.9,1.4h-1v-1.5h0.9
					c1.6,0,2.4-1,2.4-3.2c0-0.8,0.1-1.5,0.3-2.2c0.5-1.6,2-2.8,3.7-2.7c0.9,0,1.8,0.3,2.5,0.8c0.6,0.5,1,1.2,1.3,1.9
					c0.2,0.7,0.3,1.5,0.3,2.3c0,2.1,0.8,3.2,2.3,3.2h0.9V94h-1.1C61.1,94,60,93.4,59.3,92.5z M53.5,89.2c-0.1,1,0.2,2,0.9,2.8
					c0.8,0.9,2.2,0.9,3.1,0.1c0.1-0.1,0.2-0.2,0.3-0.3c0.5-0.8,0.8-1.7,0.7-2.6c0.1-0.9-0.2-1.9-0.7-2.6c-0.9-1-2.4-1.1-3.3-0.2
					c-0.1,0.1-0.3,0.3-0.4,0.4C53.6,87.5,53.4,88.3,53.5,89.2z"/>
			</g>
			<g>
				<path class="st3" d="M63.4,93.9h-0.6v-1.5h0.4c0.7,0,1.4-0.3,1.8-0.8c0.4-0.6,0.6-1.3,0.6-2V79h1.6v10.7
					c0.1,1.2-0.4,2.5-1.3,3.3C65.2,93.6,64.3,93.9,63.4,93.9z"/>
			</g>
			<g>
				<path class="st3" d="M72.8,93.9h-1.6V79h1.6V93.9z"/>
			</g>
			<g>
				<path class="st3" d="M86.1,93.2v0.3c0.1,1.3-0.4,2.6-1.3,3.6c-0.8,0.7-1.8,1.1-2.8,1c-0.9,0-1.9-0.3-2.7-0.7l0.4-1.4
					c0.7,0.3,1.4,0.5,2.1,0.6c0.8,0,1.5-0.3,2-0.9c0.5-0.7,0.7-1.5,0.6-2.3v-9H86v5c-0.1,0.8,0.2,1.6,0.7,2.2c0.4,0.4,1,0.7,1.6,0.7
					h0.4v1.5h-0.6C87.5,93.9,86.7,93.7,86.1,93.2z M86.2,81.8c0,0.3-0.1,0.5-0.3,0.7c-0.4,0.4-1,0.4-1.4,0l0,0
					c-0.4-0.4-0.4-1.1,0-1.5s1.1-0.4,1.5,0C86.1,81.2,86.2,81.5,86.2,81.8L86.2,81.8z"/>
			</g>
			<g>
				<path class="st3" d="M88.3,92.4h0.9c0.7,0,1.4-0.3,1.8-0.8c0.4-0.6,0.6-1.3,0.6-2V88c-0.1-1.1,0.3-2.1,1.1-2.9
					c0.7-0.6,1.7-0.9,2.6-0.9c1.2-0.1,2.4,0.5,3.1,1.5s1,2.1,0.9,3.3c0.1,1.5-0.4,2.9-1.4,4c-0.7,0.7-1.7,1.1-2.7,1.1
					c-1.2,0.1-2.4-0.5-3.1-1.5c-0.7,0.8-1.7,1.3-2.8,1.3h-1V92.4z M93.1,89.9c-0.1,0.8,0.1,1.5,0.6,2.1c0.4,0.4,1,0.6,1.6,0.5
					c0.7,0,1.4-0.3,1.8-0.9c0.5-0.8,0.8-1.7,0.7-2.6c0.1-0.9-0.2-1.8-0.7-2.5c-0.4-0.5-1.1-0.8-1.8-0.8c-1.4,0-2.2,0.8-2.2,2.4V89.9
					z"/>
			</g>
			<g>
				<path class="st3" d="M106.7,84.5v8.9c0.1,1.4-0.4,2.7-1.3,3.7c-0.8,0.7-1.8,1-2.8,1c-0.9,0-1.9-0.3-2.7-0.7l0.4-1.4
					c0.6,0.3,1.4,0.5,2.1,0.6c0.8,0,1.5-0.3,2-0.9c0.5-0.7,0.7-1.5,0.7-2.3v-9L106.7,84.5z"/>
			</g>
			<g>
				<path class="st3" d="M376.7,14.9c0,1.4-0.7,2.8-2,3.5c-1.4,0.7-2.9,1.1-4.5,1c-1.8,0.1-3.6-0.5-4.9-1.8c-1-1.1-1.6-2.6-1.5-4.1
					c0-1.2,0.3-2.5,1-3.5l1.3,0.6c-0.5,0.9-0.7,1.9-0.7,2.9c-0.1,1.2,0.4,2.4,1.3,3.2c1,0.8,2.2,1.3,3.5,1.2c1.3,0,2.5-0.2,3.6-0.8
					c0.8-0.4,1.3-1.2,1.4-2.1h-2v-1.5h4V15h-0.5L376.7,14.9L376.7,14.9z"/>
			</g>
			<g>
				<path class="st3" d="M377.3,14.9h-0.6v-1.5h0.4c0.7,0,1.4-0.3,1.8-0.9c0.4-0.6,0.6-1.3,0.6-2v-5h1.6v5c-0.1,0.8,0.2,1.6,0.7,2.2
					c0.4,0.4,1,0.7,1.6,0.6h0.4v1.5h-0.5c-1.2,0.1-2.3-0.5-3-1.4C379.6,14.5,378.4,15,377.3,14.9z M381.3,2.8c0,0.6-0.5,1-1,1
					c-0.3,0-0.5-0.1-0.7-0.3s-0.3-0.5-0.3-0.7c0-0.5,0.5-1,1-1c0.3,0,0.5,0.1,0.7,0.3C381.1,2.2,381.3,2.5,381.3,2.8L381.3,2.8z"/>
			</g>
			<g>
				<path class="st3" d="M383.3,14.9v-1.5h0.4c0.7,0,1.4-0.3,1.8-0.9c0.4-0.6,0.6-1.3,0.6-2v-5h1.6v5c-0.1,0.8,0.2,1.6,0.7,2.2
					c0.4,0.4,1,0.7,1.6,0.6h0.4v1.5h-0.5c-1.2,0.1-2.3-0.5-3-1.4c-0.7,1-1.8,1.5-3,1.4L383.3,14.9z M386.8,18.7
					c-0.3,0-0.5-0.1-0.7-0.3c-0.2-0.2-0.3-0.4-0.3-0.7c0-0.3,0.1-0.5,0.3-0.7c0.2-0.2,0.4-0.3,0.7-0.3c0.3,0,0.5,0.1,0.7,0.3
					c0.2,0.2,0.3,0.5,0.3,0.7C387.8,18.3,387.3,18.7,386.8,18.7L386.8,18.7z"/>
			</g>
			<g>
				<path class="st3" d="M400.5,13.6c-1.3,1.8-3.8,2.3-5.7,1c-0.4-0.3-0.7-0.6-1-1c-0.7,0.9-1.8,1.4-2.9,1.4h-1v-1.5h0.9
					c1.6,0,2.4-1,2.4-3.2c0-0.8,0.1-1.5,0.3-2.2c0.2-0.8,0.8-1.6,1.5-2.1c1.5-0.9,3.3-0.8,4.7,0.2c0.6,0.5,1,1.2,1.3,1.9
					c0.2,0.7,0.3,1.5,0.3,2.2c0,2.1,0.8,3.2,2.4,3.2h0.9V15h-1.1C402.3,15,401.2,14.5,400.5,13.6z M394.6,10.2c-0.1,1,0.2,2,0.9,2.8
					c0.8,0.9,2.3,0.9,3.2,0.1c0.1-0.1,0.2-0.2,0.3-0.3c0.5-0.8,0.7-1.7,0.7-2.6c0.1-0.9-0.2-1.9-0.7-2.6c-0.4-0.5-1.1-0.8-1.8-0.8
					c-0.8,0-1.5,0.3-2,1C394.8,8.6,394.6,9.4,394.6,10.2z"/>
			</g>
			<g>
				<path class="st3" d="M404.6,14.9H404v-1.5h0.4c0.7,0,1.4-0.3,1.8-0.9c0.4-0.6,0.6-1.3,0.6-2V0h1.6v10.7c0.1,1.2-0.4,2.5-1.3,3.3
					C406.4,14.6,405.5,15,404.6,14.9z"/>
			</g>
			<g>
				<path class="st3" d="M413.9,14.9h-1.6V0h1.6V14.9z"/>
			</g>
			<g>
				<path class="st3" d="M423.5,22H422v-4.9c0-0.9,0.2-1.8,0.8-2.6c0.5-0.5,1.1-0.9,1.9-1l0.7-0.1c-0.7-1-1.1-2.2-1-3.4
					c-0.1-1.3,0.4-2.6,1.2-3.6c0.7-0.8,1.8-1.2,2.9-1.2c1.1-0.1,2.1,0.4,2.9,1.2c0.6,0.7,0.9,1.7,0.9,2.6v1.5
					c-0.1,0.8,0.2,1.6,0.7,2.2c0.4,0.4,1,0.7,1.6,0.6h0.9v1.5h-1.1c-1.1,0.1-2.2-0.4-2.9-1.3c-0.7,0.8-1.7,1.3-2.7,1.3H426
					c-0.7-0.1-1.3,0.1-1.9,0.6c-0.4,0.6-0.6,1.3-0.5,2.1V22H423.5z M425.9,10.1c-0.1,1,0.3,1.9,0.9,2.6c0.4,0.5,1,0.7,1.6,0.7
					c1.4,0,2.1-0.8,2.1-2.4V9.2c0-1.6-0.7-2.4-2.2-2.4c-0.8,0-1.5,0.3-2,1C426,8.5,425.8,9.3,425.9,10.1L425.9,10.1z"/>
			</g>
			<g>
				<path class="st3" d="M441.6,14.9h-6.7v-1.5h3.5c-0.7-1-1-2.2-1-3.4c-0.1-1.3,0.4-2.6,1.2-3.6c0.7-0.8,1.8-1.2,2.9-1.2
					c1.1-0.1,2.1,0.4,2.9,1.2c0.6,0.7,0.9,1.7,0.9,2.6v2c0.1,1.1-0.3,2.1-1.1,2.9C443.5,14.6,442.6,15,441.6,14.9z M439.1,10.1
					c-0.1,1,0.3,1.9,0.9,2.6c0.4,0.5,1,0.7,1.6,0.7c1.4,0,2.1-0.8,2.1-2.5V9.2c0-0.7-0.2-1.3-0.6-1.8c-0.4-0.4-1-0.6-1.6-0.6
					c-0.8,0-1.5,0.3-2,1C439.2,8.5,439,9.3,439.1,10.1L439.1,10.1z M441.4,2.7c0,0.3-0.1,0.5-0.3,0.7c-0.4,0.4-1,0.4-1.4,0l0,0
					c-0.2-0.2-0.3-0.5-0.3-0.7c0-0.3,0.1-0.5,0.3-0.7c0.4-0.4,1-0.4,1.4,0l0,0C441.3,2.2,441.4,2.4,441.4,2.7z M443.9,2.7
					c0,0.6-0.5,1-1,1c-0.3,0-0.5-0.1-0.7-0.3s-0.3-0.5-0.3-0.7c0-0.5,0.5-1,1-1c0.3,0,0.5,0.1,0.7,0.3
					C443.8,2.1,443.9,2.4,443.9,2.7z"/>
			</g>
			<g>
				<path class="st3" d="M452.8,5.6v8.9c0.1,1.4-0.4,2.7-1.3,3.7c-0.8,0.7-1.8,1-2.8,1c-0.9,0-1.9-0.3-2.7-0.7l0.5-1.4
					c0.7,0.3,1.4,0.5,2.1,0.6c0.8,0,1.5-0.3,2-0.9c0.5-0.7,0.7-1.5,0.6-2.3v-9L452.8,5.6z"/>
			</g>
			<g>
				<g>
					<path class="st3" d="M28.2,148.9c-1.3,0.9-2.8,1.3-4.3,1.3c-1.5,0.1-3-0.5-4.1-1.5c-1-0.9-1.5-2.2-1.5-3.6c0-1,0.2-1.9,0.7-2.7
						c0.4-0.7,1.1-1.4,1.8-1.8c-1.2-0.8-1.9-2.1-1.8-3.6c-0.1-1.3,0.4-2.5,1.3-3.4c0.8-0.8,1.9-1.2,3-1.2H27v1.5h-3.4
						c-0.9-0.1-1.8,0.3-2.4,1c-0.5,0.6-0.7,1.3-0.7,2c0,0.8,0.3,1.5,0.9,2c0.7,0.5,1.5,0.8,2.4,0.8h4.1v1.5h-4
						c-1.2-0.1-2.3,0.4-3.1,1.2c-1.3,1.5-1.1,3.8,0.4,5.1c0.1,0,0.1,0.1,0.2,0.1c0.8,0.6,1.8,0.9,2.8,0.8c1.2,0,2.3-0.3,3.3-0.9
						L28.2,148.9z"/>
				</g>
				<g>
					<path class="st3" d="M35.2,141.2v0.3c0.1,1.3-0.4,2.6-1.3,3.6c-0.8,0.7-1.8,1.1-2.8,1c-0.9,0-1.9-0.3-2.7-0.7l0.5-1.4
						c0.6,0.4,1.4,0.5,2.1,0.6c0.8,0,1.5-0.3,2-0.9c0.5-0.7,0.7-1.5,0.6-2.3v-9h1.6v5c-0.1,0.8,0.2,1.6,0.7,2.2
						c0.4,0.4,1,0.7,1.6,0.6h0.4v1.5h-0.6C36.6,141.9,35.9,141.7,35.2,141.2z"/>
				</g>
				<g>
					<path class="st3" d="M42.5,141.9h-5v-1.5h4c-0.6-0.5-1-1.1-1.3-1.8s-0.5-1.4-0.5-2.1c-0.1-1.2,0.4-2.3,1.2-3.2
						c0.8-0.8,1.8-1.2,2.9-1.1c1.2-0.1,2.4,0.5,3.2,1.4c0.6,0.8,1,1.8,0.9,2.9c0,0.7-0.2,1.5-0.5,2.1c-0.3,0.7-0.7,1.3-1.3,1.8h4
						v1.5h-5c-0.5,0-0.9,0-1.4-0.2C43.4,141.9,42.9,141.9,42.5,141.9z M43.8,140.3c0.8-0.4,1.5-1,2-1.8c0.4-0.6,0.6-1.3,0.6-2.1
						s-0.2-1.5-0.7-2.1c-1.1-1-2.8-1-3.8,0.1c0,0,0,0-0.1,0.1c-0.4,0.6-0.6,1.2-0.5,1.9c0,0.8,0.3,1.6,0.7,2.3
						C42.4,139.5,43.1,140,43.8,140.3L43.8,140.3z M44.8,129.8c0,0.3-0.1,0.5-0.3,0.7c-0.4,0.4-1,0.4-1.4,0l0,0
						c-0.2-0.2-0.3-0.5-0.3-0.7c0-0.3,0.1-0.5,0.3-0.7c0.2-0.2,0.4-0.3,0.7-0.3C44.3,128.8,44.8,129.2,44.8,129.8L44.8,129.8z"/>
				</g>
				<g>
					<path class="st3" d="M50.2,141.9h-0.6v-1.5H50c0.7,0,1.4-0.3,1.8-0.9c0.4-0.6,0.6-1.3,0.6-2V127H54v10.7
						c0.1,1.2-0.4,2.4-1.2,3.3C52,141.6,51.1,141.9,50.2,141.9z"/>
				</g>
				<g>
					<path class="st3" d="M59.6,141.9H58V127h1.6V141.9z"/>
				</g>
				<g>
					<path class="st3" d="M72.9,141.2v0.3c0.1,1.3-0.4,2.6-1.3,3.6c-0.8,0.7-1.8,1.1-2.8,1c-0.9,0-1.9-0.3-2.7-0.7l0.5-1.4
						c0.6,0.4,1.4,0.5,2.1,0.6c0.8,0,1.5-0.3,2-0.9c0.5-0.7,0.7-1.5,0.6-2.3v-9h1.6v5c-0.1,0.8,0.2,1.6,0.7,2.2
						c0.4,0.4,1,0.7,1.6,0.6h0.4v1.5H75C74.3,141.9,73.5,141.7,72.9,141.2z M73.1,129.8c0,0.3-0.1,0.5-0.3,0.7
						c-0.2,0.2-0.4,0.3-0.7,0.3c-0.3,0-0.5-0.1-0.7-0.3s-0.3-0.5-0.3-0.7c0-0.6,0.4-1,1-1c0.3,0,0.6,0.1,0.8,0.3
						C73,129.2,73.1,129.5,73.1,129.8z"/>
				</g>
				<g>
					<path class="st3" d="M75.2,140.4h0.9c0.7,0,1.4-0.3,1.8-0.9c0.4-0.6,0.6-1.3,0.6-2V136c-0.1-1.1,0.3-2.1,1.1-2.9
						c0.7-0.6,1.7-0.9,2.6-0.9c1.2-0.1,2.4,0.5,3.1,1.5s1,2.1,1,3.3c0.1,1.5-0.4,2.9-1.4,4c-0.7,0.7-1.7,1.1-2.7,1.1
						c-1.2,0.1-2.4-0.5-3.1-1.5c-0.7,0.8-1.7,1.3-2.8,1.3h-1.1V140.4z M80,137.9c-0.1,0.8,0.1,1.5,0.6,2.1c0.4,0.4,1,0.6,1.5,0.5
						c0.7,0,1.4-0.3,1.8-0.9c0.5-0.8,0.8-1.7,0.7-2.6c0.1-0.9-0.2-1.8-0.7-2.5c-0.4-0.5-1.1-0.8-1.8-0.8c-1.5,0-2.2,0.8-2.2,2.4v1.8
						H80z"/>
				</g>
				<g>
					<path class="st3" d="M93.6,132.5v8.9c0.1,1.4-0.4,2.7-1.3,3.7c-0.8,0.7-1.8,1-2.8,1c-0.9,0-1.9-0.3-2.7-0.7l0.4-1.4
						c0.6,0.4,1.4,0.5,2.1,0.6c0.8,0,1.5-0.3,2-0.9c0.5-0.7,0.7-1.5,0.6-2.3v-9L93.6,132.5z"/>
				</g>
			</g>
			<g>
				<path class="st3" d="M7.1,14.2v0.3c0.1,1.3-0.4,2.6-1.3,3.6C5,18.8,4,19.2,3,19.1c-0.9,0-1.9-0.3-2.7-0.7L0.8,17
					c0.7,0.3,1.4,0.5,2.1,0.6c0.8,0,1.5-0.3,2-0.9c0.5-0.7,0.7-1.5,0.7-2.3v-9h1.6v5c-0.1,0.8,0.2,1.6,0.7,2.2
					c0.4,0.4,1,0.7,1.6,0.6h0.4v1.5H9.2C8.5,14.9,7.7,14.7,7.1,14.2z M7.2,2.8c0,0.3-0.1,0.5-0.3,0.7C6.7,3.7,6.5,3.8,6.2,3.8
					S5.7,3.7,5.5,3.5S5.2,3.1,5.2,2.8c0-0.6,0.4-1,0.9-1.1c0.3,0,0.6,0.1,0.8,0.3C7.1,2.2,7.2,2.5,7.2,2.8z"/>
			</g>
			<g>
				<path class="st3" d="M9.4,14.9v-1.5h0.4c0.7,0,1.4-0.3,1.8-0.9c0.4-0.6,0.6-1.3,0.6-2v-5h1.6v5c-0.1,0.8,0.2,1.6,0.7,2.2
					c0.4,0.4,1,0.7,1.6,0.6h0.4v1.5H16c-1.2,0.1-2.3-0.5-3-1.4c-0.7,1-1.8,1.5-2.9,1.4L9.4,14.9z M11.4,18.7c-0.5,0-1-0.5-1-1
					c0-0.3,0.1-0.5,0.3-0.7s0.5-0.3,0.8-0.3s0.5,0.1,0.7,0.3c0.2,0.2,0.3,0.5,0.3,0.7c0,0.3-0.1,0.5-0.3,0.7
					C12,18.6,11.7,18.7,11.4,18.7L11.4,18.7z M13.8,18.7c-0.3,0-0.5-0.1-0.7-0.3c-0.2-0.2-0.3-0.4-0.3-0.7c0-0.3,0.1-0.5,0.3-0.7
					s0.5-0.3,0.7-0.3c0.3,0,0.5,0.1,0.7,0.3c0.2,0.2,0.3,0.5,0.3,0.7C14.8,18.2,14.4,18.7,13.8,18.7L13.8,18.7z"/>
			</g>
			<g>
				<path class="st3" d="M15.9,14.9v-1.5h0.4c0.7,0,1.4-0.3,1.8-0.9c0.4-0.6,0.6-1.3,0.6-2v-5h1.6v5c-0.1,0.8,0.2,1.6,0.7,2.2
					c0.4,0.4,1,0.7,1.6,0.6H23v1.5h-0.5c-1.2,0.1-2.3-0.5-3-1.4c-0.7,1-1.8,1.5-3,1.4L15.9,14.9L15.9,14.9z M17.9,18.7
					c-0.5,0-1-0.5-1-1c0-0.3,0.1-0.5,0.3-0.7c0.2-0.2,0.4-0.3,0.7-0.3c0.3,0,0.5,0.1,0.7,0.3c0.2,0.2,0.3,0.5,0.3,0.7
					c0,0.3-0.1,0.5-0.3,0.7C18.5,18.6,18.2,18.7,17.9,18.7L17.9,18.7z M20.4,18.7c-0.5,0-1-0.5-1-1c0-0.3,0.1-0.5,0.3-0.7
					c0.4-0.4,1-0.4,1.4,0l0,0c0.2,0.2,0.3,0.5,0.3,0.7c0,0.3-0.1,0.5-0.3,0.7C20.9,18.6,20.7,18.7,20.4,18.7L20.4,18.7z"/>
			</g>
			<g>
				<path class="st3" d="M33.1,13.5c-0.7,1.1-2,1.8-3.3,1.7c-1.3,0.1-2.6-0.6-3.4-1.7c-0.7,0.9-1.8,1.4-2.9,1.4h-1.1v-1.5h0.9
					c1.6,0,2.4-1,2.4-3.2c0-0.8,0.1-1.5,0.3-2.2c0.2-0.8,0.8-1.6,1.5-2.1C29,5,30.8,5.1,32.2,6.1c0.6,0.5,1,1.2,1.3,1.9
					c0.2,0.7,0.3,1.5,0.3,2.2c0,2.1,0.8,3.2,2.4,3.2h0.9v1.5H36C34.9,15,33.8,14.5,33.1,13.5z M27.3,10.2c-0.1,1,0.2,2,0.9,2.8
					c0.4,0.5,1,0.7,1.6,0.7c0.7,0,1.4-0.3,1.8-0.9c0.5-0.8,0.8-1.7,0.7-2.6c0.1-0.9-0.2-1.9-0.7-2.6c-0.4-0.5-1.1-0.8-1.8-0.8
					c-0.8-0.1-1.6,0.3-2,1C27.4,8.6,27.2,9.4,27.3,10.2z"/>
			</g>
			<g>
				<path class="st3" d="M37.2,14.9h-0.6v-1.5H37c0.7,0,1.4-0.3,1.8-0.9c0.4-0.6,0.6-1.3,0.6-2v-5H41v5.1c0.1,1.2-0.4,2.5-1.3,3.3
					C39,14.6,38.1,14.9,37.2,14.9z M39.9,2.7c0,0.3-0.1,0.5-0.3,0.7s-0.4,0.3-0.7,0.3c-0.5,0-1-0.5-1-1c0-0.3,0.1-0.5,0.3-0.7
					s0.5-0.3,0.7-0.3C39.5,1.7,39.9,2.2,39.9,2.7L39.9,2.7z M42.4,2.7c0,0.3-0.1,0.5-0.3,0.7s-0.4,0.3-0.7,0.3s-0.5-0.1-0.7-0.3
					s-0.3-0.5-0.3-0.7c0-0.3,0.1-0.5,0.3-0.7s0.5-0.3,0.7-0.3c0.3,0,0.5,0.1,0.7,0.3C42.3,2.2,42.4,2.4,42.4,2.7L42.4,2.7z"/>
			</g>
			<g>
				<path class="st3" d="M63.7,14.9h-8.2c-1.6,0.1-3.1-0.5-4.2-1.6c-0.7-0.9-1-2-1-3.1c0-0.9,0.3-1.8,0.8-2.6c0.5-0.7,1.2-1.3,2-1.6
					L54,7.2c-0.6,0.3-1.1,0.7-1.5,1.2c-0.9,1.3-0.7,3,0.5,4.1c0.7,0.6,1.5,0.9,2.4,0.9h5.2c-0.7-1-1.1-2.2-1-3.4
					c-0.1-1.3,0.4-2.6,1.2-3.6c0.7-0.8,1.8-1.2,2.8-1.2c1.1-0.1,2.1,0.4,2.8,1.2c0.6,0.7,1,1.7,0.9,2.6v2c0.1,1.1-0.3,2.1-1.1,2.9
					C65.6,14.6,64.7,15,63.7,14.9z M61.2,10.1c-0.1,1,0.3,1.9,0.9,2.6c0.4,0.5,1,0.7,1.6,0.7c1.4,0,2.1-0.9,2.1-2.5V9.2
					c0-0.7-0.2-1.3-0.6-1.8c-0.4-0.4-1-0.6-1.6-0.6c-0.8,0-1.5,0.3-2,1C61.3,8.5,61.1,9.3,61.2,10.1z M64.5,2.8
					c0,0.3-0.1,0.5-0.3,0.7c-0.2,0.2-0.4,0.3-0.7,0.3c-0.5,0-1-0.5-1-1c0-0.3,0.1-0.5,0.3-0.7s0.5-0.3,0.7-0.3
					C64.1,1.8,64.5,2.3,64.5,2.8L64.5,2.8z"/>
			</g>
			<g>
				<path class="st3" d="M74.8,14.2v0.3c0.1,1.3-0.4,2.6-1.3,3.6c-0.8,0.7-1.8,1.1-2.8,1c-0.9,0-1.9-0.3-2.7-0.7l0.4-1.4
					c0.6,0.3,1.4,0.5,2.1,0.6c0.8,0,1.5-0.3,2-0.9c0.5-0.7,0.7-1.5,0.7-2.3v-9h1.6v5c-0.1,0.8,0.2,1.6,0.7,2.2
					c0.4,0.4,1,0.7,1.6,0.6h0.4v1.5H77C76.2,14.9,75.5,14.7,74.8,14.2z"/>
			</g>
			<g>
				<path class="st3" d="M80.2,14.9h-3v-1.5H80c1.5,0.1,3-0.2,4.4-0.9c1-0.6,1.9-1.4,2.7-2.3c-1.3-2-2.8-3-4.3-3
					c-1.2,0.1-2.4,0.6-3.2,1.6l-1-1.1c1.9-2.3,5.3-2.6,7.6-0.7c0.1,0.1,0.1,0.1,0.2,0.2c1,0.9,1.8,1.9,2.3,3.2v0.4
					c-0.6,0.7-1.2,1.4-1.8,2.1c-0.5,0.5-1.1,0.9-1.7,1.2C83.6,14.7,81.9,15,80.2,14.9z"/>
			</g>
			<g>
				<polygon class="st4" points="263.6,49.4 260.8,49.4 260.8,12.6 96.9,12.6 96.9,9.8 263.6,9.8 				"/>
			</g>
			<g>
				<polygon class="st4" points="266.9,43.8 262.2,48.6 257.4,43.8 257.4,47.9 262.2,52.6 266.9,47.9 				"/>
			</g>
			<g>
				<polygon class="st5" points="353.4,139.3 228.3,139.3 228.3,113.8 231.1,113.8 231.1,136.5 353.4,136.5 				"/>
			</g>
			<g>
				<polygon class="st5" points="225,119.4 229.7,114.6 234.5,119.4 234.5,115.3 229.7,110.6 225,115.3 				"/>
			</g>
			<g>
				<path class="st3" d="M178.7,100.8h-7.6L163,86.4c-1.1,0.1-1.5,0.1-2.3,0.1h-2v14.4H152v-38h8.7c5.1,0,8.1,0.9,10.6,3
					c2.6,2.2,4,5.5,4,9c0,4.2-2.1,7.8-5.7,9.9L178.7,100.8z M161.1,80.4c5.1,0,7.6-1.8,7.6-5.7c0-1.7-0.7-3.3-1.8-4.2
					c-1.2-1-2.9-1.5-5.8-1.5h-2.5v11.4C158.6,80.4,161.1,80.4,161.1,80.4z"/>
				<path class="st3" d="M211.5,100.8h-7.6l-8.1-14.4c-1.1,0.1-1.5,0.1-2.3,0.1h-2v14.4h-6.7v-38h8.7c5.1,0,8.1,0.9,10.6,3
					c2.6,2.2,4,5.5,4,9c0,4.2-2.1,7.8-5.7,9.9L211.5,100.8z M193.9,80.4c5.1,0,7.6-1.8,7.6-5.7c0-1.7-0.7-3.3-1.8-4.2
					c-1.2-1-2.9-1.5-5.8-1.5h-2.5v11.4C191.4,80.4,193.9,80.4,193.9,80.4z"/>
				<path class="st3" d="M244.2,100.8h-7.6l-8.1-14.4c-1.1,0.1-1.5,0.1-2.3,0.1h-2v14.4h-6.7v-38h8.7c5.1,0,8.1,0.9,10.6,3
					c2.6,2.2,4,5.5,4,9c0,4.2-2.1,7.8-5.7,9.9L244.2,100.8z M226.7,80.4c5.1,0,7.6-1.8,7.6-5.7c0-1.7-0.7-3.3-1.8-4.2
					c-1.2-1-2.9-1.5-5.8-1.5h-2.5v11.4C224.2,80.4,226.7,80.4,226.7,80.4z"/>
				<path class="st3" d="M259,62.8c12.7,0,20.8,7.4,20.8,19s-8,19-20.8,19h-8.7v-38C250.3,62.8,259,62.8,259,62.8z M257,94.6h2.2
					c8.6,0,13.8-4.8,13.8-12.8c0-7.9-5.2-12.7-13.8-12.7H257V94.6z"/>
				<path class="st6" d="M285.5,95.5l13.6-15c2.6-2.9,3.8-5.3,3.8-7.6c0-2.7-2.1-4.4-5.2-4.4c-2.3,0-3.9,0.8-4.8,2.2
					c-0.6,1-0.8,1.6-1.5,3.8l-6.2-1.7c0.6-2.9,1.2-4.2,2.3-5.8c2.3-3.1,5.9-4.8,10.4-4.8c7,0,11.7,4.4,11.7,10.9c0,3.6-1.4,7.1-4,10
					L295,94.6h15.3v6.3h-24.8V95.5z"/>
				<path class="st6" d="M320.9,98.1l7.2-10c-3.5-0.2-5.6-0.9-8-2.5c-3.3-2.3-5.2-6-5.2-10.2c0-7.5,6-13.5,13.5-13.5
					c7.6,0,13.6,5.9,13.6,13.5c0,3-1.1,6-3,8.8L326.2,102L320.9,98.1z M328.4,81.9c3.9,0,6.8-2.8,6.8-6.7c0-4-3-7-6.8-7
					s-6.8,3.1-6.8,7C321.6,79.2,324.4,81.9,328.4,81.9z"/>
				<path class="st6" d="M348,95.5l13.6-15c2.6-2.9,3.8-5.3,3.8-7.6c0-2.7-2.1-4.4-5.2-4.4c-2.3,0-3.9,0.8-4.8,2.2
					c-0.6,1-0.8,1.6-1.5,3.8l-6.2-1.7c0.6-2.9,1.2-4.2,2.3-5.8c2.3-3.1,5.9-4.8,10.4-4.8c7,0,11.7,4.4,11.7,10.9c0,3.6-1.4,7.1-4,10
					l-10.5,11.6h15.3v6.3H348V95.5z"/>
				<path class="st6" d="M383.4,98.1l7.2-10c-3.5-0.2-5.6-0.9-8-2.5c-3.3-2.3-5.2-6-5.2-10.2c0-7.5,6-13.5,13.5-13.5
					c7.6,0,13.6,5.9,13.6,13.5c0,3-1.1,6-3,8.8L388.7,102L383.4,98.1z M390.9,81.9c3.9,0,6.8-2.8,6.8-6.7c0-4-3-7-6.8-7
					s-6.8,3.1-6.8,7C384,79.2,386.9,81.9,390.9,81.9z"/>
			</g>
			<g>
				<path class="st3" d="M360,149.4v-5c0-2.1,1.1-3.4,2.8-3.7c0.2,0,0.4-0.1,0.7-0.1c-0.6-0.8-1.1-2-1.1-3.4c0-3,1.6-4.9,4.2-4.9
					c2.4,0,3.8,1.5,3.8,3.9v1.5c0,1.9,1,2.9,2.4,2.9h0.9v1.6h-1.1c-1.2,0-2.3-0.5-3-1.4c-0.6,0.8-1.5,1.3-2.8,1.4H364
					c-2.1,0-2.4,1.1-2.4,2.7v4.5H360z M368.8,136.3c0-1.7-0.7-2.5-2.2-2.5c-1.7,0-2.6,1.3-2.6,3.4c0,2.4,1.3,3.4,2.6,3.4
					c1.5,0,2.2-0.8,2.2-2.5V136.3z"/>
				<path class="st3" d="M373.2,142.1v-1.6h1.2c1.4,0,2.4-1.1,2.4-2.9V134h1.6v3.6c0,1.9,0.9,2.9,2.5,2.9c1.8,0,2.6-1.1,2.6-2.9V134
					h1.6v3.6c0,1.9,1,2.9,2.6,2.9c1.7,0,2.5-1.2,2.5-2.9V134h1.6v3.6c0,1.9,1,2.9,2.4,2.9h1.2v1.6H394c-1.2,0-2.3-0.5-3-1.5
					c-0.7,1-1.8,1.5-3.4,1.5s-2.6-0.4-3.3-1.5c-0.7,1-1.8,1.5-3.5,1.5c-1.5,0-2.5-0.5-3.2-1.5c-0.7,1-1.8,1.5-3,1.5H373.2z"/>
				<path class="st3" d="M395,142.1v-1.6h4.1c-1.1-1-1.8-2.5-1.8-4c0-2.4,1.5-4.4,4.2-4.4c2.8,0,4.2,2,4.2,4.4c0,1.5-0.7,3-1.8,4
					h4.1v1.6h-5.1c-0.4,0-0.9,0-1.4-0.2c-0.5,0.1-0.9,0.2-1.4,0.2H395z M404.1,136.5c0-1.5-0.9-2.9-2.6-2.9c-1.8,0-2.6,1.3-2.6,2.9
					c0,1.4,0.9,3.2,2.6,4C403.2,139.7,404.1,138.1,404.1,136.5z M400.2,130.6c-0.6,0-1.1-0.5-1.1-1.1s0.5-1.1,1.1-1.1
					s1.1,0.5,1.1,1.1S400.8,130.6,400.2,130.6z M402.7,130.6c-0.6,0-1.1-0.5-1.1-1.1s0.5-1.1,1.1-1.1s1.1,0.5,1.1,1.1
					S403.3,130.6,402.7,130.6z"/>
				<path class="st3" d="M407.5,142.1v-1.6h0.4c1.4,0,2.4-1.1,2.4-2.9v-10.8h1.6v11c0,2.9-1.7,4.3-3.8,4.3H407.5z"/>
				<path class="st3" d="M416.1,142.1v-15.3h1.6v15.3H416.1z"/>
				<path class="st3" d="M431.3,141.7c-0.1,3.1-1.6,4.7-4.2,4.7c-0.9,0-1.8-0.2-2.8-0.7l0.5-1.4c0.8,0.4,1.5,0.6,2.2,0.6
					c1.6,0,2.7-1,2.7-3.2v-9.2h1.6v5.1c0,1.9,1,2.9,2.4,2.9h0.4v1.6h-0.6c-0.8,0-1.6-0.2-2.2-0.7V141.7z M430.4,130.7
					c-0.6,0-1.1-0.5-1.1-1.1s0.5-1.1,1.1-1.1c0.6,0,1.1,0.5,1.1,1.1S431,130.7,430.4,130.7z"/>
				<path class="st3" d="M434.5,140.5c1.4,0,2.4-1.1,2.4-2.9v-1.5c0-2.4,1.4-3.9,3.8-3.9c2.6,0,4.2,1.9,4.2,4.9c0,3.6-2,5.2-4.2,5.2
					c-1.4,0-2.5-0.6-3.2-1.5c-0.7,0.9-1.7,1.3-2.9,1.3h-1.1v-1.6H434.5z M438.6,138c0,1.9,0.7,2.7,2.2,2.7c1.3,0,2.6-1,2.6-3.7
					c0-2-0.9-3.4-2.6-3.4c-1.5,0-2.2,0.8-2.2,2.5V138z"/>
				<path class="st3" d="M452.5,141.6c0,3.3-1.7,4.9-4.2,4.9c-0.9,0-1.8-0.2-2.8-0.7l0.5-1.4c0.8,0.4,1.5,0.6,2.2,0.6
					c1.6,0,2.7-1,2.7-3.2v-9.2h1.6C452.5,132.6,452.5,141.6,452.5,141.6z"/>
			</g>
		</g>
	</g>
</g>
<g id="Layer_2_00000026164030262160832590000004300082828218886551_">
</g>
</svg>
