<svg xmlns="http://www.w3.org/2000/svg" xmlns:xlink="http://www.w3.org/1999/xlink" width="144" height="48.558" viewBox="0 0 144 48.558">
  <defs>
    <linearGradient id="linear-gradient" x1="0.915" x2="0.201" y2="0.896" gradientUnits="objectBoundingBox">
      <stop offset="0" stop-color="#12a394"/>
      <stop offset="1" stop-color="#06614b"/>
    </linearGradient>
  </defs>
  <g id="Layer_2" data-name="Layer 2" transform="translate(0 0.123)">
    <g id="Layer_1" data-name="Layer 1">
      <path id="Path_13" data-name="Path 13" d="M8.1,28.894A5.472,5.472,0,0,1,3.664,27.04,6.12,6.12,0,0,1,2.337,23V9.052L5.188,7.528V22.9q0,3.316,3.246,3.314h2.187v2.684Z"/>
      <path id="Path_14" data-name="Path 14" d="M20.158,26.21h2.187v2.684H19.828a5.559,5.559,0,0,1-4.338-1.758,5.562,5.562,0,0,1-4.341,1.758H8.631V26.21h2.187q3.249,0,3.246-3.314V16.04l2.848-1.524V22.9q0,3.316,3.246,3.314m-5.233-15.7A1.449,1.449,0,0,1,13.3,8.851a1.425,1.425,0,0,1,1.623-1.623,1.414,1.414,0,0,1,1.592,1.623,1.446,1.446,0,0,1-1.592,1.657"/>
      <path id="Path_15" data-name="Path 15" d="M31.654,26.21h2.185v2.684H31.33a5.479,5.479,0,0,1-4.406-1.823,5.845,5.845,0,0,1-4.57,1.823H20.379V26.21h1.756q3.443,0,3.443-3.61V9.052l2.882-1.524V22.634a4.1,4.1,0,0,0,.745,2.749,3.178,3.178,0,0,0,2.47.827"/>
      <path id="Path_16" data-name="Path 16" d="M38.386,14.883h.2A8.193,8.193,0,0,1,44.646,17.2a7.165,7.165,0,0,1,2.12,5.332V23.1a5.683,5.683,0,0,1-1.756,4.44A5.88,5.88,0,0,1,41,28.894H31.852V26.21h8.877q3.178,0,3.181-3.345V22.58A4.312,4.312,0,0,0,41.988,18.8a6.492,6.492,0,0,0-3.709-1.025,10.675,10.675,0,0,0-3.545.627V15.583l7.254-8.05H44.9Z"/>
      <path id="Path_17" data-name="Path 17" d="M67.2,26.21v2.684H63.089a6.162,6.162,0,0,1-2.45,4.694,7.031,7.031,0,0,1-4.44,1.524,8.185,8.185,0,0,1-3.875-.96V31.635a7.4,7.4,0,0,0,3.477.926,4.62,4.62,0,0,0,3.065-1.092,3.41,3.41,0,0,0,1.341-2.616q-1.722-.065-2.54-.133a7.119,7.119,0,0,1-5.4-2.419,7.311,7.311,0,0,1-1.524-4.8,7.887,7.887,0,0,1,1.922-5.645A6.01,6.01,0,0,1,57.2,14.067a5.814,5.814,0,0,1,4.539,1.756A5.963,5.963,0,0,1,63.1,19.9V26.19Zm-6.989-6.094q0-3.387-3.014-3.387a3.2,3.2,0,0,0-2.681,1.242,5.562,5.562,0,0,0-.962,3.48q0,4.341,4.234,4.606.8.1,2.419.164Z"/>
      <path id="Path_18" data-name="Path 18" d="M65.2,28.894V26.21h2.185q3.246,0,3.249-3.314V16.04l2.848-1.524V23a5.848,5.848,0,0,1-1.694,4.44,5.711,5.711,0,0,1-4.073,1.456Zm2.54-18.386a1.448,1.448,0,0,1-1.623-1.657,1.606,1.606,0,1,1,3.212,0,1.445,1.445,0,0,1-1.589,1.657m4.206,0a1.449,1.449,0,0,1-1.623-1.657,1.606,1.606,0,1,1,3.212,0,1.445,1.445,0,0,1-1.589,1.657"/>
      <path id="Path_19" data-name="Path 19" d="M3.009,39.261H0V38.042H7.731v1.219H4.482V48.07H3.009Z"/>
      <path id="Path_20" data-name="Path 20" d="M14.113,48.07H13.037l-.158-.742a2.986,2.986,0,0,1-2.314.931,2.419,2.419,0,0,1-1.747-.61,2.168,2.168,0,0,1-.632-1.643,2.06,2.06,0,0,1,.974-1.829,5,5,0,0,1,2.766-.644h.847v-.079a1.462,1.462,0,0,0-1.662-1.646,3.26,3.26,0,0,0-1.976.68l-.412-.728A4.234,4.234,0,0,1,11.558,40.7q2.554-.011,2.554,3.051Zm-1.363-3.627h-.711Q9.6,44.443,9.6,45.9a1.259,1.259,0,0,0,.358.954,1.313,1.313,0,0,0,.957.35,2.168,2.168,0,0,0,1.129-.31,1.521,1.521,0,0,0,.7-.785Z"/>
      <path id="Path_21" data-name="Path 21" d="M19.089,48.07H17.742l-2.408-7.192H16.76l1.648,5.56,1.5-5.56H21.4l1.442,5.56,1.662-5.56H25.95L23.495,48.07H22.145l-1.5-5.464Z"/>
      <path id="Path_22" data-name="Path 22" d="M32.713,48.07H31.652l-.158-.742a2.983,2.983,0,0,1-2.312.931,2.433,2.433,0,0,1-1.753-.61,2.176,2.176,0,0,1-.641-1.643,2.06,2.06,0,0,1,.974-1.829,5.021,5.021,0,0,1,2.766-.644h.847v-.079a1.462,1.462,0,0,0-1.662-1.646,3.26,3.26,0,0,0-1.976.68l-.412-.728A4.234,4.234,0,0,1,30.147,40.7q2.566,0,2.566,3.06Zm-1.36-3.627h-.7q-2.439,0-2.441,1.456a1.267,1.267,0,0,0,.356.951,1.324,1.324,0,0,0,.96.35,2.185,2.185,0,0,0,1.129-.31,1.535,1.535,0,0,0,.7-.785Z"/>
      <path id="Path_23" data-name="Path 23" d="M40.763,40.878,37.5,43.715l3.356,4.355h-1.6l-2.786-3.8v3.8H35.106V38.581l1.363-.728v5.21l2.422-2.185Z"/>
      <path id="Path_24" data-name="Path 24" d="M47.985,40.878l-3.263,2.837,3.359,4.355h-1.6l-2.789-3.8v3.8H42.329V38.581l1.363-.728v5.21l2.425-2.185Z"/>
      <path id="Path_25" data-name="Path 25" d="M55.005,48.07H53.941l-.155-.742a2.992,2.992,0,0,1-2.314.931,2.422,2.422,0,0,1-1.75-.61A2.168,2.168,0,0,1,49.081,46a2.06,2.06,0,0,1,.974-1.829,5,5,0,0,1,2.763-.644h.847v-.079A1.463,1.463,0,0,0,52,41.8a3.257,3.257,0,0,0-1.976.68l-.412-.728a4.214,4.214,0,0,1,2.823-1.064q2.568,0,2.568,3.06Zm-1.363-3.627h-.7q-2.439,0-2.439,1.456a1.267,1.267,0,0,0,.356.954,1.315,1.315,0,0,0,.96.35,2.168,2.168,0,0,0,1.129-.31,1.535,1.535,0,0,0,.7-.785Z"/>
      <path id="Path_26" data-name="Path 26" d="M58.759,37.853V48.07H57.4V38.581Z"/>
      <path id="Path_27" data-name="Path 27" d="M62.5,41.59h.076a2.868,2.868,0,0,1,2.258-.9q2.65,0,2.648,3.1v4.276H66.12V43.873q0-2.015-1.775-2.012a2.34,2.34,0,0,0-1,.237,1.837,1.837,0,0,0-.745.564v5.4H61.24V40.878h1.129Z"/>
      <path id="Path_28" data-name="Path 28" d="M75.313,48.07H74.252l-.158-.742a2.986,2.986,0,0,1-2.314.931,2.419,2.419,0,0,1-1.747-.61A2.168,2.168,0,0,1,69.389,46a2.06,2.06,0,0,1,.974-1.829,5,5,0,0,1,2.766-.644h.847v-.079A1.462,1.462,0,0,0,72.313,41.8a3.26,3.26,0,0,0-1.976.68l-.412-.728a4.234,4.234,0,0,1,2.837-1.064q2.566,0,2.566,3.06ZM73.95,44.443h-.7q-2.439,0-2.439,1.456a1.259,1.259,0,0,0,.358.951,1.312,1.312,0,0,0,.957.35,2.168,2.168,0,0,0,1.129-.31,1.521,1.521,0,0,0,.7-.785Z"/>
      <g id="Layer_2-2" data-name="Layer 2">
        <g id="Layer_1-2" data-name="Layer 1-2">
          <path id="Path_29" data-name="Path 29" d="M122.926,3.491,108.15,18.267l-1.225-1.233a12.349,12.349,0,1,0-17.469,17.46l1.233,1.233h0l9.272,9.314a11.589,11.589,0,0,0,16.387,0l9.269-9.314h0L140.378,20.96A12.347,12.347,0,1,0,122.924,3.49" fill="url(#linear-gradient)"/>
        </g>
      </g>
    </g>
  </g>
</svg>
